<svg width="106" height="32" viewBox="0 0 106 32" fill="none" xmlns="http://www.w3.org/2000/svg">
<path d="M0.469368 11.227H5.43354C6.58377 11.227 7.53725 10.9092 8.15778 10.3643C8.79343 9.81949 9.11126 9.1233 9.11126 8.10927C9.11126 6.77742 8.29399 5.77854 7.09835 5.43044V5.38504C8.11237 5.03694 8.79343 4.32561 8.79343 3.22078C8.79343 2.37324 8.52101 1.72245 7.93076 1.19273C7.37077 0.69329 6.47783 0.405731 5.31246 0.405731H0.469368V11.227ZM2.66389 6.38392H5.13084C6.12973 6.38392 6.88646 6.91364 6.88646 7.94279C6.88646 8.8206 6.25081 9.41085 5.19138 9.41085H2.66389V6.38392ZM2.66389 4.76451V2.19162H5.08544C6.05406 2.19162 6.64431 2.6608 6.64431 3.46293C6.64431 4.31047 5.99352 4.76451 5.04004 4.76451H2.66389Z" fill="#898989"/>
<path d="M14.0605 11.454C16.4669 11.454 18.1166 9.66814 18.1166 7.35254C18.1166 5.03694 16.4669 3.25105 14.0605 3.25105C11.6541 3.25105 10.0044 5.03694 10.0044 7.35254C10.0044 9.66814 11.6541 11.454 14.0605 11.454ZM14.0605 9.88003C12.7892 9.88003 12.093 8.86601 12.093 7.35254C12.093 5.83907 12.7892 4.80992 14.0605 4.80992C15.3167 4.80992 16.028 5.83907 16.028 7.35254C16.028 8.86601 15.3167 9.88003 14.0605 9.88003Z" fill="#898989"/>
<path d="M21.0863 3.46293H19.0734V11.227H21.1317V6.82283C21.1317 5.7634 21.7977 5.03694 22.7057 5.03694C23.5684 5.03694 24.0527 5.62719 24.0527 6.4596V11.227H26.111V6.1569C26.111 4.46182 25.0365 3.25105 23.4322 3.25105C22.3728 3.25105 21.6614 3.68995 21.1317 4.52236H21.0863V3.46293Z" fill="#898989"/>
<path d="M29.3927 3.46293H27.3797V11.227H29.4381V6.82283C29.4381 5.7634 30.104 5.03694 31.0121 5.03694C31.8747 5.03694 32.359 5.62719 32.359 6.4596V11.227H34.4174V6.1569C34.4174 4.46182 33.3428 3.25105 31.7385 3.25105C30.6791 3.25105 29.9678 3.68995 29.4381 4.52236H29.3927V3.46293Z" fill="#898989"/>
<path d="M40.5746 11.227H42.5572V11.1513C42.3756 11.0151 42.2848 10.667 42.2848 10.0768V6.12663C42.2848 4.31047 41.3464 3.26618 39.0157 3.26618C36.7455 3.26618 35.7315 4.46182 35.6709 5.82394H37.5022C37.5628 5.08234 38.0319 4.73424 39.0006 4.73424C39.8632 4.73424 40.3021 5.09748 40.3021 5.65746C40.3021 6.24771 39.7119 6.35365 38.4254 6.53527C36.7001 6.77742 35.3077 7.32227 35.3077 9.03249C35.3077 10.5762 36.4277 11.4086 38.0168 11.4086C39.3487 11.4086 39.9086 10.9546 40.3021 10.3643H40.3324C40.3778 10.7124 40.4535 11.0757 40.5746 11.227ZM38.5163 9.97084C37.7898 9.97084 37.3055 9.71355 37.3055 8.98708C37.3055 8.26062 37.8352 8.01847 38.9098 7.77631C39.4243 7.65523 39.9843 7.53416 40.3475 7.32227V8.48764C40.3475 9.24437 39.6968 9.97084 38.5163 9.97084Z" fill="#898989"/>
<path d="M47.1954 11.454C49.2688 11.454 50.5553 10.1373 50.6915 8.48764H48.7089C48.5726 9.36545 47.9824 9.80436 47.15 9.80436C45.8938 9.80436 45.3036 8.8206 45.3036 7.35254C45.3036 5.85421 45.9392 4.90073 47.1803 4.90073C47.937 4.90073 48.4667 5.4153 48.6029 6.09636H50.6158C50.3434 4.41642 49.1024 3.25105 47.0894 3.25105C44.7284 3.25105 43.215 5.03694 43.215 7.35254C43.215 9.66814 44.7436 11.454 47.1954 11.454Z" fill="#898989"/>
<path d="M55.267 11.454C57.6734 11.454 59.3231 9.66814 59.3231 7.35254C59.3231 5.03694 57.6734 3.25105 55.267 3.25105C52.8606 3.25105 51.2109 5.03694 51.2109 7.35254C51.2109 9.66814 52.8606 11.454 55.267 11.454ZM55.267 9.88003C53.9957 9.88003 53.2995 8.86601 53.2995 7.35254C53.2995 5.83907 53.9957 4.80992 55.267 4.80992C56.5232 4.80992 57.2345 5.83907 57.2345 7.35254C57.2345 8.86601 56.5232 9.88003 55.267 9.88003Z" fill="#898989"/>
<path d="M62.2625 3.46293H60.2799V11.227H62.3382V7.44335C62.3382 5.8088 63.3068 5.09748 64.6538 5.23369H64.6992V3.43266C64.5781 3.38726 64.4419 3.37212 64.2149 3.37212C63.3068 3.37212 62.7771 3.82617 62.3079 4.70398H62.2625V3.46293Z" fill="#898989"/>
<path d="M68.2701 11.454C69.3597 11.454 70.1316 10.9546 70.5857 10.213H70.6159V11.227H72.5986V0.405731H70.5402V4.40128H70.4948C70.0711 3.75049 69.39 3.25105 68.3003 3.25105C66.3631 3.25105 64.9858 4.93099 64.9858 7.35254C64.9858 9.86489 66.3177 11.454 68.2701 11.454ZM68.7241 9.72868C67.6647 9.72868 67.0744 8.85087 67.0744 7.35254C67.0744 5.91475 67.6495 4.91586 68.7846 4.91586C70.1013 4.91586 70.5857 5.91475 70.5857 7.39794C70.5857 8.8206 69.95 9.72868 68.7241 9.72868Z" fill="#898989"/>
<path d="M5.20657 29.111C6.7049 29.111 7.74919 28.6569 8.49079 27.9607C9.21725 27.2797 9.62589 26.3564 9.68643 25.403H7.53731C7.40109 26.5381 6.49301 27.3099 5.20657 27.3099C3.39041 27.3099 2.24017 25.7208 2.24017 23.5111C2.24017 21.362 3.19366 19.6972 5.19143 19.6972C6.46274 19.6972 7.28002 20.4085 7.47677 21.4982H9.65616C9.42914 19.4399 7.85513 17.8508 5.19143 17.8508C1.99802 17.8508 0.000244141 20.3026 0.000244141 23.5111C0.000244141 26.7651 2.1645 29.111 5.20657 29.111Z" fill="#434344"/>
<path d="M15.5374 28.8839H17.52V28.8083C17.3384 28.6721 17.2476 28.324 17.2476 27.7337V23.7836C17.2476 21.9674 16.3093 20.9231 13.9785 20.9231C11.7083 20.9231 10.6943 22.1187 10.6338 23.4809H12.4651C12.5256 22.7393 12.9948 22.3912 13.9634 22.3912C14.8261 22.3912 15.265 22.7544 15.265 23.3144C15.265 23.9046 14.6747 24.0106 13.3883 24.1922C11.6629 24.4343 10.2705 24.9792 10.2705 26.6894C10.2705 28.2331 11.3905 29.0656 12.9796 29.0656C14.3115 29.0656 14.8715 28.6115 15.265 28.0213H15.2952C15.3406 28.3694 15.4163 28.7326 15.5374 28.8839ZM13.4791 27.6278C12.7526 27.6278 12.2683 27.3705 12.2683 26.644C12.2683 25.9175 12.798 25.6754 13.8726 25.4332C14.3872 25.3122 14.9471 25.1911 15.3104 24.9792V26.1446C15.3104 26.9013 14.6596 27.6278 13.4791 27.6278Z" fill="#434344"/>
<path d="M18.5562 31.4266H20.6145V28.0061H20.6447C21.0837 28.6721 21.795 29.111 22.8847 29.111C24.8825 29.111 26.2446 27.5218 26.2446 25.0095C26.2446 22.5879 24.9279 20.908 22.8695 20.908C21.8101 20.908 21.0837 21.4074 20.5842 22.0885H20.5388V21.1199H18.5562V31.4266ZM22.4458 27.4007C21.2199 27.4007 20.5691 26.4775 20.5691 25.07C20.5691 23.6776 21.0837 22.5728 22.3701 22.5728C23.6414 22.5728 24.156 23.6019 24.156 25.07C24.156 26.5381 23.4901 27.4007 22.4458 27.4007Z" fill="#434344"/>
<path d="M27.2024 28.8839H29.2607V21.1199H27.2024V28.8839ZM27.2024 19.9091H29.2607V18.0627H27.2024V19.9091Z" fill="#434344"/>
<path d="M30.133 22.482H31.2076V27.0375C31.2076 28.5056 32.3124 28.8991 33.3113 28.8991C34.1285 28.8991 34.5977 28.8688 34.5977 28.8688V27.3553C34.5977 27.3553 34.2496 27.3705 33.9923 27.3705C33.5383 27.3705 33.2205 27.1737 33.2205 26.5986V22.482H34.5523V21.1199H33.2205V18.6983H31.2076V21.1199H30.133V22.482Z" fill="#434344"/>
<path d="M40.5746 28.8839H42.5573V28.8083C42.3756 28.6721 42.2848 28.324 42.2848 27.7337V23.7836C42.2848 21.9674 41.3465 20.9231 39.0157 20.9231C36.7455 20.9231 35.7315 22.1187 35.671 23.4809H37.5023C37.5628 22.7393 38.032 22.3912 39.0006 22.3912C39.8633 22.3912 40.3022 22.7544 40.3022 23.3144C40.3022 23.9046 39.7119 24.0106 38.4255 24.1922C36.7001 24.4343 35.3078 24.9792 35.3078 26.6894C35.3078 28.2331 36.4277 29.0656 38.0169 29.0656C39.3487 29.0656 39.9087 28.6115 40.3022 28.0213H40.3325C40.3779 28.3694 40.4535 28.7326 40.5746 28.8839ZM38.5163 27.6278C37.7898 27.6278 37.3055 27.3705 37.3055 26.644C37.3055 25.9175 37.8352 25.6754 38.9098 25.4332C39.4244 25.3122 39.9844 25.1911 40.3476 24.9792V26.1446C40.3476 26.9013 39.6968 27.6278 38.5163 27.6278Z" fill="#434344"/>
<path d="M43.6237 28.8839H45.682V18.0627H43.6237V28.8839Z" fill="#434344"/>
<path d="M49.7457 28.8839H52.0159V24.9641H54.6796C56.9498 24.9641 58.2968 23.5868 58.2968 21.5436C58.2968 20.5447 57.9336 19.6972 57.3282 19.0767C56.6926 18.4259 55.7542 18.0627 54.498 18.0627H49.7457V28.8839ZM52.0159 19.9696H54.3164C55.4061 19.9696 56.0418 20.5447 56.0418 21.5588C56.0418 22.5425 55.4364 23.1782 54.2861 23.1782H52.0159V19.9696Z" fill="#434344"/>
<path d="M63.8087 28.8839H65.7913V28.8083C65.6097 28.6721 65.5189 28.324 65.5189 27.7337V23.7836C65.5189 21.9674 64.5806 20.9231 62.2498 20.9231C59.9796 20.9231 58.9656 22.1187 58.905 23.4809H60.7363C60.7969 22.7393 61.2661 22.3912 62.2347 22.3912C63.0974 22.3912 63.5363 22.7544 63.5363 23.3144C63.5363 23.9046 62.946 24.0106 61.6596 24.1922C59.9342 24.4343 58.5418 24.9792 58.5418 26.6894C58.5418 28.2331 59.6618 29.0656 61.2509 29.0656C62.5828 29.0656 63.1428 28.6115 63.5363 28.0213H63.5665C63.6119 28.3694 63.6876 28.7326 63.8087 28.8839ZM61.7504 27.6278C61.0239 27.6278 60.5396 27.3705 60.5396 26.644C60.5396 25.9175 61.0693 25.6754 62.1439 25.4332C62.6584 25.3122 63.2184 25.1911 63.5817 24.9792V26.1446C63.5817 26.9013 62.9309 27.6278 61.7504 27.6278Z" fill="#434344"/>
<path d="M68.8101 21.1199H66.8275V28.8839H68.8858V25.1003C68.8858 23.4657 69.8544 22.7544 71.2014 22.8906H71.2468V21.0896C71.1257 21.0442 70.9895 21.029 70.7625 21.029C69.8544 21.029 69.3247 21.4831 68.8555 22.3609H68.8101V21.1199Z" fill="#434344"/>
<path d="M71.7533 22.482H72.8279V27.0375C72.8279 28.5056 73.9327 28.8991 74.9316 28.8991C75.7489 28.8991 76.218 28.8688 76.218 28.8688V27.3553C76.218 27.3553 75.8699 27.3705 75.6127 27.3705C75.1586 27.3705 74.8408 27.1737 74.8408 26.5986V22.482H76.1726V21.1199H74.8408V18.6983H72.8279V21.1199H71.7533V22.482Z" fill="#434344"/>
<path d="M79.2454 21.1199H77.2325V28.8839H79.2908V24.4798C79.2908 23.4203 79.9568 22.6939 80.8649 22.6939C81.7275 22.6939 82.2118 23.2841 82.2118 24.1165V28.8839H84.2702V23.8138C84.2702 22.1187 83.1956 20.908 81.5913 20.908C80.5319 20.908 79.8206 21.3469 79.2908 22.1793H79.2454V21.1199Z" fill="#434344"/>
<path d="M89.1863 29.111C91.1841 29.111 92.41 27.9456 92.6976 26.5683H90.6695C90.4425 27.1586 89.9733 27.5218 89.1712 27.5218C88.0058 27.5218 87.3399 26.7802 87.1885 25.5846H92.8186C92.8186 22.8149 91.4868 20.908 88.9896 20.908C86.7194 20.908 85.1605 22.6939 85.1605 24.9943C85.1605 27.3099 86.6134 29.111 89.1863 29.111ZM89.0198 22.4971C89.9582 22.4971 90.609 23.1782 90.6695 24.1619H87.2188C87.4004 23.1479 87.9301 22.4971 89.0198 22.4971Z" fill="#434344"/>
<path d="M95.7539 21.1199H93.7713V28.8839H95.8296V25.1003C95.8296 23.4657 96.7982 22.7544 98.1452 22.8906H98.1906V21.0896C98.0695 21.0442 97.9333 21.029 97.7063 21.029C96.7982 21.029 96.2685 21.4831 95.7993 22.3609H95.7539V21.1199Z" fill="#434344"/>
<path d="M102.225 29.111C104.163 29.111 105.494 28.1726 105.494 26.6137C105.494 24.7976 104.057 24.4343 102.755 24.1619C101.65 23.9349 100.621 23.8744 100.621 23.2084C100.621 22.6485 101.151 22.3458 101.953 22.3458C102.831 22.3458 103.36 22.6485 103.451 23.4809H105.313C105.161 21.922 104.026 20.908 101.983 20.908C100.212 20.908 98.82 21.7101 98.82 23.3901C98.82 25.0851 100.182 25.4635 101.575 25.7359C102.634 25.9478 103.618 26.0235 103.618 26.7651C103.618 27.3099 103.103 27.658 102.195 27.658C101.272 27.658 100.636 27.2645 100.5 26.3716H98.593C98.7141 28.0213 99.9702 29.111 102.225 29.111Z" fill="#434344"/>
</svg>
