<svg width="141" height="21" viewBox="0 0 141 21" fill="none" xmlns="http://www.w3.org/2000/svg">
<path d="M140.31 6.02998H137.384L137.018 2.82931C136.986 2.54964 136.747 2.33833 136.463 2.33833L133.205 2.33747C132.979 2.33747 132.796 2.51835 132.796 2.74166V6.02998L132.825 9.46863V15.4031C132.825 16.1565 132.91 16.8397 133.082 17.4518C133.253 18.0641 133.533 18.5915 133.922 19.034C134.311 19.4774 134.829 19.8165 135.475 20.0514C136.12 20.2867 136.918 20.4047 137.869 20.4047C138.363 20.4047 138.856 20.3623 139.351 20.2779C139.703 20.2176 140.013 20.1499 140.278 20.0751C140.455 20.0252 140.574 19.8621 140.571 19.6799L140.528 17.129C140.524 16.8754 140.288 16.6942 140.036 16.7422C139.985 16.7519 139.932 16.7607 139.878 16.7687C139.621 16.8066 139.379 16.8252 139.151 16.8252C138.486 16.8252 138.026 16.6604 137.769 16.33C137.513 15.9998 137.384 15.5049 137.384 14.8447V9.46863H140.31C140.536 9.46863 140.718 9.28773 140.718 9.06464V6.434C140.718 6.2109 140.536 6.02998 140.31 6.02998Z" fill="#9EA3AD"/>
<path d="M13.4119 7.3182C13.0033 6.78277 12.4669 6.34586 11.8019 6.00758C11.1556 5.67923 10.3752 5.51164 9.46088 5.50211L9.4637 5.50035C9.44919 5.50035 9.43532 5.50119 9.4208 5.50127C9.40694 5.50119 9.39372 5.50035 9.37963 5.50035C9.32915 5.50035 9.27975 5.50395 9.22971 5.50536C8.17456 5.53065 7.27238 5.72469 6.52707 6.0922C5.8461 6.42807 5.29621 6.79156 4.87437 7.18175L4.59921 6.2871C4.52749 6.05419 4.31018 5.89506 4.06405 5.89506L0.954522 5.89489C0.728761 5.89489 0.545898 6.07579 0.545898 6.29897V19.5275C0.545898 19.7506 0.728761 19.9315 0.954522 19.9315H4.83927C5.06482 19.9315 5.24789 19.7506 5.24789 19.5272V12.3212C5.24789 11.9266 5.29989 11.546 5.40454 11.1798C5.50875 10.8134 5.66562 10.489 5.87491 10.2073C6.08334 9.92548 6.34486 9.70472 6.65836 9.54491C6.97187 9.38553 7.3376 9.30542 7.75554 9.30542C8.17326 9.30542 8.5197 9.38553 8.79552 9.54491C9.07068 9.70472 9.28431 9.92113 9.43684 10.1932C9.58872 10.4659 9.69769 10.7808 9.76421 11.1373C9.83094 11.4947 9.86409 11.8702 9.86409 12.265V19.5275C9.86409 19.7506 10.047 19.9315 10.2727 19.9315H14.1575C14.3832 19.9315 14.5661 19.7506 14.5661 19.5275V11.2502C14.5661 10.5554 14.4757 9.85986 14.2953 9.16434C14.1146 8.46953 13.8201 7.85371 13.4119 7.3182Z" fill="#9EA3AD"/>
<path d="M48.4766 16.183C48.0582 15.9764 47.707 15.7038 47.4223 15.3655C47.1372 15.0274 46.9236 14.6375 46.7808 14.1958C46.6389 13.7547 46.5676 13.308 46.5676 12.8571C46.5676 12.406 46.6389 11.9648 46.7808 11.5322C46.9236 11.1003 47.1372 10.7198 47.4223 10.3908C47.707 10.0622 48.0582 9.79448 48.4766 9.58746C48.8939 9.38101 49.3788 9.27746 49.93 9.27746C50.4619 9.27746 50.9364 9.38101 51.3547 9.58746C51.7723 9.79448 52.1282 10.0665 52.4233 10.4049C52.7175 10.7431 52.9455 11.1285 53.1073 11.5604C53.2685 11.9929 53.3495 12.4343 53.3495 12.8853C53.3495 13.3363 53.2685 13.7779 53.1073 14.21C52.9455 14.6425 52.7175 15.0274 52.4233 15.3655C52.1282 15.7038 51.7723 15.9764 51.3547 16.183C50.9364 16.39 50.4619 16.4931 49.93 16.4931C49.3788 16.4931 48.8939 16.39 48.4766 16.183ZM57.4148 0.406313H53.5584C53.3329 0.406313 53.15 0.587189 53.15 0.810284V7.38904H53.093C52.6939 6.91949 52.1334 6.48718 51.4117 6.09247C50.6896 5.69793 49.8063 5.50062 48.7617 5.50062C47.7361 5.50062 46.8098 5.69793 45.983 6.09247C45.1569 6.48718 44.4536 7.02253 43.8745 7.69904C43.2947 8.37544 42.8488 9.16025 42.5353 10.0525C42.2218 10.9452 42.0649 11.8802 42.0649 12.8571C42.0649 13.8344 42.217 14.7737 42.521 15.6757C42.8248 16.5775 43.2663 17.3715 43.8461 18.0574C44.4255 18.7434 45.1329 19.2931 45.969 19.7062C46.8048 20.1193 47.7545 20.3263 48.8185 20.3263C48.947 20.3263 49.0742 20.3222 49.2007 20.3151C50.3104 20.2913 51.2585 20.0892 52.0407 19.7035C52.7143 19.3711 53.264 19.0126 53.694 18.6292L53.9958 19.5492C54.0706 19.7772 54.2853 19.9318 54.5277 19.9318H57.4148C57.6403 19.9318 57.8232 19.7509 57.8232 19.5278V0.810284C57.8232 0.587189 57.6403 0.406313 57.4148 0.406313Z" fill="#9EA3AD"/>
<path d="M83.0027 5.89489H79.0437C78.8599 5.89489 78.6989 6.01619 78.65 6.19141L76.2535 14.7735H76.1967L73.6609 6.18562C73.61 6.01334 73.4503 5.89489 73.2688 5.89489H69.1823C68.9994 5.89489 68.8389 6.01501 68.7893 6.18905L66.3371 14.7735H66.2517L63.883 6.1925C63.8346 6.01685 63.6732 5.89489 63.4889 5.89489H59.3307C59.0501 5.89489 58.8529 6.16848 58.9446 6.43083L63.5636 19.6593C63.6204 19.8222 63.7755 19.9315 63.9497 19.9315H68.0591C68.2383 19.9315 68.3965 19.816 68.4495 19.6469L71.0961 11.1938H71.1533L73.8553 19.6492C73.909 19.8172 74.0667 19.9315 74.2448 19.9315H78.3568C78.5308 19.9315 78.6855 19.8226 78.7427 19.6599L83.3884 6.4315C83.4807 6.16897 83.2835 5.89489 83.0027 5.89489Z" fill="#9EA3AD"/>
<path d="M106.528 0.406044H102.586C102.36 0.406044 102.177 0.58692 102.177 0.810015V19.5275C102.177 19.7506 102.36 19.9315 102.586 19.9315H106.528C106.753 19.9315 106.936 19.7506 106.936 19.5275V0.810015C106.936 0.58692 106.753 0.406044 106.528 0.406044Z" fill="#9EA3AD"/>
<path d="M114.335 0.406044H110.393C110.167 0.406044 109.984 0.58692 109.984 0.810015V19.5275C109.984 19.7506 110.167 19.9315 110.393 19.9315H114.335C114.56 19.9315 114.743 19.7506 114.743 19.5275V0.810015C114.743 0.58692 114.56 0.406044 114.335 0.406044Z" fill="#9EA3AD"/>
<path d="M88.7776 15.3655C88.4927 15.0274 88.2789 14.6375 88.1361 14.1958C87.9944 13.7547 87.9229 13.308 87.9229 12.8571C87.9229 12.406 87.9944 11.9648 88.1361 11.5322C88.2789 11.1003 88.4927 10.7198 88.7776 10.3908C89.0625 10.0622 89.4137 9.79448 89.8319 9.58746C90.2494 9.38102 90.7341 9.27746 91.2855 9.27746C91.8172 9.27746 92.2919 9.38102 92.71 9.58746C93.1275 9.79448 93.4835 10.0665 93.7788 10.4049C94.073 10.7431 94.3008 11.1285 94.4626 11.5604C94.624 11.9929 94.7051 12.4343 94.7051 12.8853C94.7051 13.3363 94.624 13.7779 94.4626 14.21C94.3008 14.6425 94.073 15.0274 93.7788 15.3655C93.4835 15.7038 93.1275 15.9764 92.71 16.183C92.2919 16.39 91.8172 16.4931 91.2855 16.4931C90.7341 16.4931 90.2494 16.39 89.8319 16.183C89.4137 15.9764 89.0625 15.7038 88.7776 15.3655ZM98.7703 5.4153L95.5136 5.41464C95.2658 5.41464 95.0476 5.57586 94.9772 5.81094L94.5967 7.08314C94.1907 6.7303 93.6776 6.39979 93.0547 6.09247C92.2546 5.69793 91.2757 5.50062 90.1181 5.50062H90.117C89.0913 5.50062 88.1651 5.69793 87.3383 6.09247C86.5122 6.48719 85.8089 7.02253 85.23 7.69904C84.6502 8.37544 84.2043 9.16026 83.8908 10.0525C83.5771 10.9452 83.4204 11.8802 83.4204 12.8571C83.4204 13.8344 83.5723 14.7737 83.8763 15.6757C84.1802 16.5775 84.6216 17.3715 85.2016 18.0574C85.7809 18.7434 86.4881 19.2931 87.3242 19.7062C88.1603 20.1193 89.1097 20.3263 90.174 20.3263C90.419 20.3263 90.6604 20.313 90.8985 20.2873C91.7686 20.2157 92.5282 20.0222 93.1745 19.7035C93.9402 19.3258 94.5467 18.9144 94.9975 18.4705L95.3511 19.5489C95.4261 19.777 95.6408 19.9313 95.883 19.9313L98.7701 19.9318C98.9958 19.9318 99.1787 19.7509 99.1787 19.5278V5.81932C99.1787 5.59622 98.9958 5.4153 98.7703 5.4153Z" fill="#9EA3AD"/>
<path d="M41.5649 5.53985L41.5306 5.53325L41.5837 5.50035C41.4656 5.50035 41.3508 5.50378 41.2366 5.50787C41.1424 5.50294 41.0471 5.50035 40.9504 5.50035C40.3351 5.50035 39.7729 5.61537 39.2613 5.84039C39.0462 5.91289 38.841 5.99652 38.6469 6.0922C37.8933 6.46405 37.3003 6.86974 36.8642 7.30815L36.5778 6.31354C36.5093 6.07587 36.2898 5.91197 36.04 5.91197L32.9526 5.91154C32.727 5.91154 32.5439 6.09246 32.5439 6.31556V19.5275C32.5439 19.7506 32.727 19.9315 32.9526 19.9315H36.8089C37.0345 19.9315 37.2173 19.7506 37.2173 19.5275V12.7353C37.2173 12.4543 37.2748 12.1265 37.3885 11.7519C37.5025 11.3771 37.6877 11.0304 37.9442 10.7116C38.2005 10.3931 38.5427 10.1214 38.9699 9.89635C39.3974 9.67182 39.9243 9.55905 40.5513 9.55905C40.7411 9.55905 40.9363 9.5687 41.1357 9.58719L41.3235 9.61038C41.548 9.63215 41.748 9.46973 41.7698 9.24764L41.9265 5.98554C41.951 5.7638 41.7891 5.56421 41.5649 5.53985Z" fill="#9EA3AD"/>
<path d="M20.5967 11.3064C20.6155 10.9496 20.7111 10.6066 20.8818 10.2776C21.053 9.94925 21.2809 9.66246 21.566 9.41792C21.8511 9.17408 22.1831 8.98111 22.5631 8.84029C22.9433 8.69932 23.3611 8.62883 23.8169 8.62883C24.7477 8.62883 25.4458 8.89228 25.9112 9.41792C26.3768 9.94424 26.6097 10.5737 26.6097 11.3064H20.5967ZM28.9178 7.47315C28.2906 6.81582 27.54 6.31329 26.6667 5.9653C25.7924 5.6178 24.8331 5.44393 23.7885 5.44393C22.7059 5.44393 21.6986 5.62266 20.7678 5.97936C19.8368 6.33648 19.0298 6.83901 18.3456 7.4873C17.6618 8.13551 17.1203 8.92477 16.7217 9.85483C16.3224 10.7851 16.123 11.8236 16.123 12.9694C16.123 14.1533 16.3271 15.2059 16.7358 16.1262C17.1444 17.0472 17.7049 17.8222 18.4171 18.4516C19.1292 19.0815 19.9599 19.5604 20.9104 19.8892C21.8602 20.2177 22.8671 20.3823 23.9311 20.3823C25.3747 20.3823 26.6426 20.1238 27.7348 19.6071C28.403 19.291 28.9912 18.8926 29.4993 18.4113C29.6928 18.2283 29.6952 17.9223 29.5062 17.7348L27.4876 15.7281C27.303 15.5446 26.9984 15.5367 26.816 15.7225C26.5477 15.996 26.2323 16.2293 25.8687 16.4221C25.3554 16.6948 24.7288 16.8308 23.9883 16.8308C23.5699 16.8308 23.1661 16.7652 22.7769 16.6336C22.3876 16.5024 22.0362 16.3192 21.7227 16.084C21.4092 15.8492 21.1524 15.5722 20.9533 15.2525C20.754 14.9333 20.6348 14.5761 20.5967 14.1814H30.8842C30.9026 14.0123 30.9122 13.834 30.9122 13.6458C30.9122 13.4582 30.9122 13.2703 30.9122 13.0823C30.9122 11.8799 30.7364 10.8089 30.3852 9.86914C30.0332 8.92953 29.5448 8.13114 28.9178 7.47315Z" fill="#9EA3AD"/>
<path d="M120.986 11.3064C121.005 10.9496 121.1 10.6066 121.271 10.2776C121.442 9.94925 121.67 9.66246 121.955 9.41792C122.24 9.17408 122.572 8.98111 122.952 8.84029C123.332 8.69932 123.75 8.62883 124.206 8.62883C125.137 8.62883 125.835 8.89228 126.3 9.41792C126.766 9.94424 126.999 10.5737 126.999 11.3064H120.986ZM129.307 7.47315C128.68 6.81582 127.929 6.31329 127.056 5.9653C126.182 5.6178 125.222 5.44393 124.177 5.44393C123.095 5.44393 122.088 5.62266 121.157 5.97936C120.226 6.33648 119.419 6.83901 118.735 7.4873C118.051 8.13551 117.509 8.92477 117.111 9.85483C116.711 10.7851 116.512 11.8236 116.512 12.9694C116.512 14.1533 116.716 15.2059 117.125 16.1262C117.533 17.0472 118.094 17.8222 118.806 18.4516C119.518 19.0815 120.349 19.5604 121.299 19.8892C122.249 20.2177 123.256 20.3823 124.32 20.3823C125.764 20.3823 127.032 20.1238 128.124 19.6071C128.792 19.291 129.38 18.8926 129.888 18.4113C130.082 18.2283 130.084 17.9223 129.895 17.7348L127.877 15.7281C127.692 15.5446 127.387 15.5367 127.205 15.7225C126.937 15.996 126.621 16.2293 126.258 16.4221C125.745 16.6948 125.118 16.8308 124.377 16.8308C123.959 16.8308 123.555 16.7652 123.166 16.6336C122.777 16.5024 122.425 16.3192 122.112 16.084C121.798 15.8492 121.542 15.5722 121.342 15.2525C121.143 14.9333 121.024 14.5761 120.986 14.1814H131.273C131.292 14.0123 131.301 13.834 131.301 13.6458C131.301 13.4582 131.301 13.2703 131.301 13.0823C131.301 11.8799 131.126 10.8089 130.774 9.86914C130.422 8.92953 129.934 8.13114 129.307 7.47315Z" fill="#9EA3AD"/>
</svg>
